<?xml version="1.0" encoding="UTF-8" standalone="no"?>
<!DOCTYPE svg PUBLIC "-//W3C//DTD SVG 1.0//EN" "http://www.w3.org/TR/2001/PR-SVG-20010719/DTD/svg10.dtd">
<svg width="34cm" height="18cm" viewBox="242 65 670 351" xmlns="http://www.w3.org/2000/svg" xmlns:xlink="http://www.w3.org/1999/xlink">
  <g>
    <rect style="fill: #ffffff" x="244" y="109" width="74.2" height="36"/>
    <rect style="fill: none; fill-opacity:0; stroke-width: 2; stroke: #000000" x="244" y="109" width="74.2" height="36"/>
    <text style="fill: #000000;text-anchor:middle;font-size:12.8;font-family:monospace;font-style:normal;font-weight:normal" x="281.1" y="131">Artist</text>
  </g>
  <g>
    <rect style="fill: #ffffff" x="840" y="120" width="66.5" height="36"/>
    <rect style="fill: none; fill-opacity:0; stroke-width: 2; stroke: #000000" x="840" y="120" width="66.5" height="36"/>
    <text style="fill: #000000;text-anchor:middle;font-size:12.8;font-family:monospace;font-style:normal;font-weight:normal" x="873.25" y="142">Label</text>
  </g>
  <g>
    <rect style="fill: #ffffff" x="440" y="320" width="66.5" height="36"/>
    <rect style="fill: none; fill-opacity:0; stroke-width: 2; stroke: #000000" x="440" y="320" width="66.5" height="36"/>
    <text style="fill: #000000;text-anchor:middle;font-size:12.8;font-family:monospace;font-style:normal;font-weight:normal" x="473.25" y="342">Genre</text>
  </g>
  <g>
    <rect style="fill: #ffffff" x="600" y="320" width="66.5" height="36"/>
    <rect style="fill: none; fill-opacity:0; stroke-width: 2; stroke: #000000" x="600" y="320" width="66.5" height="36"/>
    <text style="fill: #000000;text-anchor:middle;font-size:12.8;font-family:monospace;font-style:normal;font-weight:normal" x="633.25" y="342">Style</text>
  </g>
  <g>
    <polygon style="fill: #ffffff" points="440,238.93 471.55,220 503.1,238.93 471.55,257.86 "/>
    <polygon style="fill: none; fill-opacity:0; stroke-width: 2; stroke: #000000" points="440,238.93 471.55,220 503.1,238.93 471.55,257.86 "/>
    <text style="fill: #000000;text-anchor:end;font-size:12.8;font-family:monospace;font-style:normal;font-weight:normal" x="434" y="232.93"></text>
    <text style="fill: #000000;text-anchor:start;font-size:12.8;font-family:monospace;font-style:normal;font-weight:normal" x="509.1" y="232.93"></text>
    <text style="fill: #000000;text-anchor:middle;font-size:12.8;font-family:monospace;font-style:normal;font-weight:normal" x="471.55" y="242.93">has</text>
  </g>
  <g>
    <polygon style="fill: #ffffff" points="600,238.93 631.55,220 663.1,238.93 631.55,257.86 "/>
    <polygon style="fill: none; fill-opacity:0; stroke-width: 2; stroke: #000000" points="600,238.93 631.55,220 663.1,238.93 631.55,257.86 "/>
    <text style="fill: #000000;text-anchor:end;font-size:12.8;font-family:monospace;font-style:normal;font-weight:normal" x="594" y="232.93"></text>
    <text style="fill: #000000;text-anchor:start;font-size:12.8;font-family:monospace;font-style:normal;font-weight:normal" x="669.1" y="232.93"></text>
    <text style="fill: #000000;text-anchor:middle;font-size:12.8;font-family:monospace;font-style:normal;font-weight:normal" x="631.55" y="242.93">has</text>
  </g>
  <line style="fill: none; fill-opacity:0; stroke-width: 2; stroke: #000000" x1="632.847" y1="319.022" x2="631.55" y2="257.86"/>
  <g>
    <rect style="fill: #ffffff" x="520" y="140" width="81.9" height="36"/>
    <rect style="fill: none; fill-opacity:0; stroke-width: 2; stroke: #000000" x="520" y="140" width="81.9" height="36"/>
    <text style="fill: #000000;text-anchor:middle;font-size:12.8;font-family:monospace;font-style:normal;font-weight:normal" x="560.95" y="162">Release</text>
  </g>
  <g>
    <polygon style="fill: #ffffff" points="340,168.17 386.95,140 433.9,168.17 386.95,196.34 "/>
    <polygon style="fill: none; fill-opacity:0; stroke-width: 2; stroke: #000000" points="340,168.17 386.95,140 433.9,168.17 386.95,196.34 "/>
    <text style="fill: #000000;text-anchor:end;font-size:12.8;font-family:monospace;font-style:normal;font-weight:normal" x="334" y="162.17"></text>
    <text style="fill: #000000;text-anchor:start;font-size:12.8;font-family:monospace;font-style:normal;font-weight:normal" x="439.9" y="162.17"></text>
    <text style="fill: #000000;text-anchor:middle;font-size:12.8;font-family:monospace;font-style:normal;font-weight:normal" x="386.95" y="172.17">Release</text>
  </g>
  <g>
    <polygon style="fill: #ffffff" points="680,148.17 726.95,120 773.9,148.17 726.95,176.34 "/>
    <polygon style="fill: none; fill-opacity:0; stroke-width: 2; stroke: #000000" points="680,148.17 726.95,120 773.9,148.17 726.95,176.34 "/>
    <text style="fill: #000000;text-anchor:end;font-size:12.8;font-family:monospace;font-style:normal;font-weight:normal" x="674" y="142.17"></text>
    <text style="fill: #000000;text-anchor:start;font-size:12.8;font-family:monospace;font-style:normal;font-weight:normal" x="779.9" y="142.17"></text>
    <text style="fill: #000000;text-anchor:middle;font-size:12.8;font-family:monospace;font-style:normal;font-weight:normal" x="726.95" y="152.17">Release</text>
  </g>
  <line style="fill: none; fill-opacity:0; stroke-width: 2; stroke: #000000" x1="472.847" y1="319.022" x2="471.55" y2="257.86"/>
  <polyline style="fill: none; fill-opacity:0; stroke-width: 2; stroke: #000000" points="560.95,177.009 560.95,198.505 631.55,198.505 631.55,220 "/>
  <polyline style="fill: none; fill-opacity:0; stroke-width: 2; stroke: #000000" points="540,180 540,198.505 471.55,198.505 471.55,220 "/>
  <polyline style="fill: none; fill-opacity:0; stroke-width: 2; stroke: #000000" points="838.992,138 806.446,138 806.446,148.17 773.9,148.17 "/>
  <polyline style="fill: none; fill-opacity:0; stroke-width: 2; stroke: #000000" points="318.2,127 340,127 340,168.17 "/>
  <polyline style="fill: none; fill-opacity:0; stroke-width: 2; stroke: #000000" points="680,148.17 641.453,148.17 641.453,158 602.905,158 "/>
  <polyline style="fill: none; fill-opacity:0; stroke-width: 2; stroke: #000000" points="433.9,168.17 476.95,168.17 476.95,158 520,158 "/>
  <text style="fill: #000000;text-anchor:start;font-size:12.8;font-family:sanserif;font-style:normal;font-weight:normal" x="620" y="140">
    <tspan x="620" y="140">*</tspan>
  </text>
  <text style="fill: #000000;text-anchor:start;font-size:12.8;font-family:sanserif;font-style:normal;font-weight:normal" x="830" y="131">
    <tspan x="830" y="131">1</tspan>
  </text>
  <text style="fill: #000000;text-anchor:start;font-size:12.8;font-family:sanserif;font-style:normal;font-weight:normal" x="300" y="140">
    <tspan x="300" y="140"></tspan>
  </text>
  <text style="fill: #000000;text-anchor:start;font-size:12.8;font-family:sanserif;font-style:normal;font-weight:normal" x="325" y="143">
    <tspan x="325" y="143">1</tspan>
  </text>
  <text style="fill: #000000;text-anchor:start;font-size:12.8;font-family:sanserif;font-style:normal;font-weight:normal" x="500" y="180">
    <tspan x="500" y="180"></tspan>
  </text>
  <text style="fill: #000000;text-anchor:start;font-size:12.8;font-family:sanserif;font-style:normal;font-weight:normal" x="500" y="140">
    <tspan x="500" y="140">*</tspan>
  </text>
  <text style="fill: #000000;text-anchor:start;font-size:12.8;font-family:sanserif;font-style:normal;font-weight:normal" x="479" y="315">
    <tspan x="479" y="315">1</tspan>
  </text>
  <text style="fill: #000000;text-anchor:start;font-size:12.8;font-family:sanserif;font-style:normal;font-weight:normal" x="640" y="300">
    <tspan x="640" y="300">*</tspan>
  </text>
  <text style="fill: #000000;text-anchor:start;font-size:12.8;font-family:sanserif;font-style:normal;font-weight:normal" x="540" y="180">
    <tspan x="540" y="180"></tspan>
  </text>
  <text style="fill: #000000;text-anchor:start;font-size:12.8;font-family:sanserif;font-style:normal;font-weight:normal" x="520" y="200">
    <tspan x="520" y="200">*</tspan>
  </text>
  <text style="fill: #000000;text-anchor:start;font-size:12.8;font-family:sanserif;font-style:normal;font-weight:normal" x="560" y="200">
    <tspan x="560" y="200"></tspan>
  </text>
  <text style="fill: #000000;text-anchor:start;font-size:12.8;font-family:sanserif;font-style:normal;font-weight:normal" x="580" y="180">
    <tspan x="580" y="180"></tspan>
  </text>
  <text style="fill: #000000;text-anchor:start;font-size:12.8;font-family:sanserif;font-style:normal;font-weight:normal" x="580" y="180">
    <tspan x="580" y="180"></tspan>
  </text>
  <text style="fill: #000000;text-anchor:start;font-size:12.8;font-family:sanserif;font-style:normal;font-weight:normal" x="580" y="200">
    <tspan x="580" y="200"></tspan>
  </text>
  <text style="fill: #000000;text-anchor:start;font-size:12.8;font-family:sanserif;font-style:normal;font-weight:normal" x="580" y="200">
    <tspan x="580" y="200">*</tspan>
  </text>
  <text style="fill: #e5583f;text-anchor:start;font-size:12.8;font-family:sanserif;font-style:normal;font-weight:normal" x="318" y="107">
    <tspan x="318" y="107">*</tspan>
  </text>
  <text style="fill: #ff0000;text-anchor:start;font-size:12.8;font-family:sanserif;font-style:normal;font-weight:normal" x="881" y="113">
    <tspan x="881" y="113">*</tspan>
  </text>
  <polyline style="fill: none; fill-opacity:0; stroke-width: 2; stroke: #000000" points="665.5,346 665.5,347 863,347 863,158 860,158 "/>
  <text style="fill: #000000;text-anchor:start;font-size:12.8;font-family:sanserif;font-style:normal;font-weight:normal" x="853" y="169">
    <tspan x="853" y="169">*</tspan>
  </text>
  <text style="fill: #000000;text-anchor:start;font-size:12.8;font-family:sanserif;font-style:normal;font-weight:normal" x="673" y="342">
    <tspan x="673" y="342">*</tspan>
  </text>
  <polyline style="fill: none; fill-opacity:0; stroke-width: 2; stroke: #000000" points="901.5,155 901.5,415 468.25,415 468.25,355.986 "/>
  <text style="fill: #000000;text-anchor:start;font-size:12.8;font-family:sanserif;font-style:normal;font-weight:normal" x="906.5" y="173">
    <tspan x="906.5" y="173">*</tspan>
  </text>
  <text style="fill: #000000;text-anchor:start;font-size:12.8;font-family:sanserif;font-style:normal;font-weight:normal" x="473.5" y="376.8">
    <tspan x="473.5" y="376.8">*</tspan>
  </text>
  <g>
    <polyline style="fill: none; fill-opacity:0; stroke-width: 2; stroke: #e5583f" points="281.1,107.991 281.1,87.9907 873.25,87.9907 873.25,120 "/>
    <text style="fill: #000000;text-anchor:middle;font-size:12.7998;font-family:monospace;font-style:normal;font-weight:normal" x="577.175" y="83.9907"></text>
    <text style="fill: #000000;text-anchor:start;font-size:12.7998;font-family:monospace;font-style:normal;font-weight:normal" x="285.1" y="103.991"></text>
    <text style="fill: #000000;text-anchor:start;font-size:12.7998;font-family:monospace;font-style:normal;font-weight:normal" x="877.25" y="116"></text>
  </g>
  <g>
    <polyline style="fill: none; fill-opacity:0; stroke-width: 2; stroke: #e5583f" points="279,148 278,148 278,338 438.994,338 "/>
    <text style="fill: #000000;text-anchor:start;font-size:12.7998;font-family:monospace;font-style:normal;font-weight:normal" x="280" y="239"></text>
    <text style="fill: #000000;text-anchor:end;font-size:12.7998;font-family:monospace;font-style:normal;font-weight:normal" x="275" y="144"></text>
    <text style="fill: #000000;text-anchor:end;font-size:12.7998;font-family:monospace;font-style:normal;font-weight:normal" x="434.994" y="334"></text>
  </g>
  <g>
    <polyline style="fill: none; fill-opacity:0; stroke-width: 2; stroke: #e5583f" points="290,147 290,282 615,282 615,317 "/>
    <text style="fill: #000000;text-anchor:middle;font-size:12.7998;font-family:monospace;font-style:normal;font-weight:normal" x="452.5" y="278"></text>
    <text style="fill: #000000;text-anchor:start;font-size:12.7998;font-family:monospace;font-style:normal;font-weight:normal" x="294" y="159"></text>
    <text style="fill: #000000;text-anchor:start;font-size:12.7998;font-family:monospace;font-style:normal;font-weight:normal" x="619" y="313"></text>
  </g>
  <text style="fill: #ff0000;text-anchor:start;font-size:12.8;font-family:sanserif;font-style:normal;font-weight:normal" x="266" y="161">
    <tspan x="266" y="161">*</tspan>
  </text>
  <text style="fill: #ff0000;text-anchor:start;font-size:12.8;font-family:sanserif;font-style:normal;font-weight:normal" x="293" y="160">
    <tspan x="293" y="160">*</tspan>
  </text>
  <text style="fill: #ff0000;text-anchor:start;font-size:12.8;font-family:sanserif;font-style:normal;font-weight:normal" x="420" y="340">
    <tspan x="420" y="340">*</tspan>
  </text>
  <text style="fill: #ff0000;text-anchor:start;font-size:12.8;font-family:sanserif;font-style:normal;font-weight:normal" x="600" y="320">
    <tspan x="600" y="320">*</tspan>
  </text>
  <g>
    <polyline style="fill: none; fill-opacity:0; stroke-width: 2; stroke: #e5583f" points="891,159 891,400 500,400 500,360 "/>
    <text style="fill: #000000;text-anchor:middle;font-size:12.7998;font-family:monospace;font-style:normal;font-weight:normal" x="695.5" y="396"></text>
    <text style="fill: #000000;text-anchor:start;font-size:12.7998;font-family:monospace;font-style:normal;font-weight:normal" x="895" y="171"></text>
    <text style="fill: #000000;text-anchor:start;font-size:12.7998;font-family:monospace;font-style:normal;font-weight:normal" x="504" y="372"></text>
  </g>
  <text style="fill: #ff0000;text-anchor:start;font-size:12.8;font-family:sanserif;font-style:normal;font-weight:normal" x="505" y="374">
    <tspan x="505" y="374">*</tspan>
  </text>
  <text style="fill: #ff0000;text-anchor:start;font-size:12.8;font-family:sanserif;font-style:normal;font-weight:normal" x="878" y="174">
    <tspan x="878" y="174">*</tspan>
  </text>
  <g>
    <polyline style="fill: none; fill-opacity:0; stroke-width: 2; stroke: #e5583f" points="837,147 816,147 816,328 671,328 "/>
    <text style="fill: #000000;text-anchor:start;font-size:12.7998;font-family:monospace;font-style:normal;font-weight:normal" x="818" y="233.5"></text>
    <text style="fill: #000000;text-anchor:end;font-size:12.7998;font-family:monospace;font-style:normal;font-weight:normal" x="833" y="143"></text>
    <text style="fill: #000000;text-anchor:start;font-size:12.7998;font-family:monospace;font-style:normal;font-weight:normal" x="675" y="324"></text>
  </g>
  <text style="fill: #ff0000;text-anchor:start;font-size:12.8;font-family:sanserif;font-style:normal;font-weight:normal" x="675" y="324">
    <tspan x="675" y="324">*</tspan>
  </text>
  <text style="fill: #ff0000;text-anchor:start;font-size:12.8;font-family:sanserif;font-style:normal;font-weight:normal" x="830" y="162">
    <tspan x="830" y="162">*</tspan>
  </text>
  <text style="fill: #42e942;text-anchor:start;font-size:17.4865;font-family:sanserif;font-style:normal;font-weight:normal" x="523" y="82">
    <tspan x="523" y="82">Affiliation</tspan>
  </text>
  <text style="fill: #42e942;text-anchor:start;font-size:17.4865;font-family:sanserif;font-style:normal;font-weight:normal" x="327" y="333">
    <tspan x="327" y="333">Genre</tspan>
  </text>
  <text style="fill: #42e942;text-anchor:start;font-size:17.4865;font-family:sanserif;font-style:normal;font-weight:normal" x="330" y="277">
    <tspan x="330" y="277">Style</tspan>
  </text>
  <text style="fill: #42e942;text-anchor:start;font-size:17.4865;font-family:sanserif;font-style:normal;font-weight:normal" x="722" y="322">
    <tspan x="722" y="322">LStyle</tspan>
  </text>
  <text style="fill: #42e942;text-anchor:start;font-size:17.4865;font-family:sanserif;font-style:normal;font-weight:normal" x="725" y="394">
    <tspan x="725" y="394">LGenre</tspan>
  </text>
</svg>
